#!OML:ASF F:\VICON\USERDATA\INSTALL\rory3\rory3.ASF
:FULLY-SPECIFIED
:DEGREES
395
root 1.21248 15.9249 -3.35246 -16.4059 -45.9321 -9.17952
lowerback 25.7775 0.846938 -1.95865
upperback 10.278 0.397147 4.40347
thorax -2.94039 -0.160721 5.84239
lowerneck -16.3691 -0.260339 -9.92639
upperneck 26.9654 1.73923 1.99072
head 11.4147 -0.0688216 2.65017
rclavicle -8.34896e-015 -1.47101e-014
rhumerus -42.1385 22.0741 -70.296
rradius 48.3995
rwrist 24.2489
rhand -32.381 20.2771
rfingers 7.12502
rthumb -5.61662 -9.62846
lclavicle -8.34896e-015 -1.47101e-014
lhumerus -30.5826 -17.7628 93.1539
lradius 78.7981
lwrist -13.3707
lhand -37.73 14.5381
lfingers 7.12502
lthumb -10.7789 44.2416
rfemur -66.0387 -6.10784 19.1324
rtibia 114.445
rfoot 21.9323 -5.90208
rtoes 9.2799
lfemur -68.6168 52.0525 -20.8406
ltibia 142.447
lfoot -19.2623 1.37337
ltoes 0.570419
396
root 1.2177 15.9208 -3.35387 -16.8862 -46.0163 -8.46759
lowerback 25.8281 0.881468 -2.45698
upperback 10.2155 0.324898 4.3515
thorax -3.02421 -0.203198 6.09783
lowerneck -16.5999 -0.109065 -9.88709
upperneck 26.6977 2.03666 1.77012
head 11.343 0.0538257 2.60084
rclavicle 2.71341e-014 -1.35174e-014
rhumerus -41.2803 21.4906 -68.831
rradius 48.5232
rwrist 22.8973
rhand -31.8182 20.1834
rfingers 7.12502
rthumb -5.07319 -9.73589
lclavicle 2.71341e-014 -1.35174e-014
lhumerus -30.6726 -17.7214 93.0591
lradius 78.7776
lwrist -13.1989
lhand -37.5387 14.6158
lfingers 7.12502
lthumb -10.5943 44.3288
rfemur -67.0696 -6.31582 18.6918
rtibia 116.256
rfoot 21.9857 -5.34257
rtoes 9.35287
lfemur -68.6631 51.8995 -21.5687
ltibia 142.327
lfoot -19.1114 1.50559
ltoes 0.517541
397
root 1.22909 15.924 -3.35471 -17.0476 -46.2036 -8.29917
lowerback 25.906 0.845639 -2.44458
upperback 10.1859 0.278977 4.33303
thorax -3.08882 -0.223881 6.08502
lowerneck -16.7626 0.0603033 -9.67203
upperneck 26.4087 2.32004 1.46928
head 11.2545 0.178778 2.48992
rclavicle -2.68359e-014 -3.65764e-014
rhumerus -40.4689 20.665 -67.4778
rradius 48.7211
rwrist 21.857
rhand -31.6195 20.1736
rfingers 7.12502
rthumb -4.88137 -9.75021
lclavicle -2.68359e-014 -3.65764e-014
lhumerus -30.8089 -17.8115 92.8886
lradius 78.7642
lwrist -13.0713
lhand -37.532 14.2629
lfingers 7.12502
lthumb -10.5878 43.9762
rfemur -67.8202 -6.48779 18.7218
rtibia 117.921
rfoot 21.8981 -5.09389
rtoes 9.97278
lfemur -68.6112 51.7632 -21.6953
ltibia 142.226
lfoot -18.8788 1.52129
ltoes 0.634795
398
root 1.23939 15.9205 -3.35505 -16.9759 -46.4745 -8.49951
lowerback 25.9961 0.754717 -2.12539
upperback 10.1942 0.231925 4.34609
thorax -3.11834 -0.242186 5.9282
lowerneck -17.0184 0.133979 -9.70375
upperneck 26.2713 2.45901 1.49827
head 11.2427 0.24882 2.52592
rclavicle 2.64384e-014 -3.77691e-014
rhumerus -39.5592 19.7714 -66.1915
rradius 48.9411
rwrist 21.3404
rhand -31.3506 20.4132
rfingers 7.12502
rthumb -4.62171 -9.51641
lclavicle 2.64384e-014 -3.77691e-014
lhumerus -30.8852 -17.82 92.6701
lradius 78.7011
lwrist -13.1604
lhand -37.6858 13.9647
lfingers 7.12502
lthumb -10.7362 43.6704
rfemur -68.5177 -6.52735 19.0967
rtibia 119.532
rfoot 21.8077 -4.94803
rtoes 10.5092
lfemur -68.7126 51.9744 -21.426
ltibia 142.229
lfoot -18.6121 1.31644
ltoes 1.47734
399
root 1.24473 15.9098 -3.35758 -16.9512 -46.7276 -8.58185
lowerback 26.0518 0.680575 -1.93472
upperback 10.2174 0.174972 4.34094
thorax -3.11336 -0.269063 5.82818
lowerneck -17.3903 0.156767 -9.85544
upperneck 26.2674 2.53064 1.69654
head 11.3036 0.291874 2.63921
rclavicle -1.90336e-014 -2.38542e-015
rhumerus -38.5285 18.8987 -64.9312
rradius 49.1995
rwrist 21.2306
rhand -31.1756 20.3818
rfingers 7.12502
rthumb -4.45267 -9.55138
lclavicle -1.90336e-014 -2.38542e-015
lhumerus -30.8885 -17.7288 92.4272
lradius 78.6497
lwrist -13.23
lhand -37.6393 13.7823
lfingers 7.12502
lthumb -10.6914 43.4903
rfemur -69.3198 -6.58318 19.3928
rtibia 121.19
rfoot 21.6651 -4.88017
rtoes 11.1593
lfemur -68.9454 52.3115 -21.3143
ltibia 142.264
lfoot -18.3925 1.10232
ltoes 2.43299
400
root 1.25054 15.899 -3.35865 -17.1228 -46.8895 -8.45147
lowerback 26.1429 0.622187 -1.9042
upperback 10.2333 0.0997098 4.3012
thorax -3.13092 -0.306837 5.78939
lowerneck -17.6023 0.250709 -9.76749
upperneck 26.1373 2.67998 1.64265
head 11.2877 0.367472 2.62604
rclavicle 6.70898e-015 -1.15295e-014
rhumerus -37.5668 18.1276 -63.7929
rradius 49.6136
rwrist 21.1329
rhand -31.6138 19.4116
rfingers 7.12502
rthumb -4.87582 -10.5123
lclavicle 6.70898e-015 -1.15295e-014
lhumerus -30.9143 -17.7144 92.1854
lradius 78.6401
lwrist -13.0916
lhand -37.2807 13.9299
lfingers 7.12502
lthumb -10.3455 43.6555
rfemur -70.0448 -6.86818 19.5348
rtibia 122.832
rfoot 21.5714 -4.63174
rtoes 10.8237
lfemur -69.0208 52.5941 -21.3933
ltibia 142.287
lfoot -18.1723 0.99382
ltoes 3.11701
401
root 1.25791 15.8915 -3.3575 -17.4721 -47.0736 -8.16839
lowerback 26.2433 0.607886 -1.964
upperback 10.2748 0.0578673 4.26669
thorax -3.12781 -0.331796 5.79971
lowerneck -17.6994 0.344915 -9.76967
upperneck 25.8762 2.82599 1.63756
head 11.1977 0.445464 2.64107
rclavicle -7.55879e-014 -7.15625e-015
rhumerus -36.6271 17.4689 -62.7099
rradius 50.1247
rwrist 20.9669
rhand -32.5303 18.064
rfingers 7.12502
rthumb -5.76074 -11.8376
lclavicle -7.55879e-014 -7.15625e-015
lhumerus -30.9199 -17.7608 92.0225
lradius 78.6025
lwrist -12.857
lhand -37.0673 14.1354
lfingers 7.12502
lthumb -10.1396 43.8711
rfemur -70.6245 -7.21086 19.5892
rtibia 124.407
rfoot 21.6047 -3.97877
rtoes 9.14296
lfemur -68.7569 52.9729 -21.3933
ltibia 142.269
lfoot -18.0833 0.906845
ltoes 3.33983
402
root 1.2645 15.8861 -3.3588 -17.6251 -47.3418 -8.09308
lowerback 26.3 0.583549 -1.86072
upperback 10.3139 0.0434702 4.2552
thorax -3.11047 -0.340095 5.73164
lowerneck -17.8174 0.415428 -9.73977
upperneck 25.6267 2.92948 1.63903
head 11.1195 0.507794 2.64771
rclavicle 5.99833e-014 -4.49253e-014
rhumerus -35.6784 16.7923 -61.6818
rradius 50.7438
rwrist 20.7207
rhand -32.5492 17.706
rfingers 7.12502
rthumb -5.77897 -12.1952
lclavicle 5.99833e-014 -4.49253e-014
lhumerus -30.923 -17.8781 91.8435
lradius 78.5287
lwrist -12.5371
lhand -37.0873 14.1281
lfingers 7.12502
lthumb -10.1589 43.8628
rfemur -71.1538 -7.40256 19.889
rtibia 125.901
rfoot 21.5071 -3.70111
rtoes 7.90932
lfemur -68.5727 53.516 -21.1796
ltibia 142.282
lfoot -18.0582 0.769026
ltoes 2.9745
403
root 1.27171 15.8804 -3.36095 -17.7823 -47.6186 -7.99149
lowerback 26.4025 0.592002 -1.69867
upperback 10.3335 0.0842443 4.17022
thorax -3.14386 -0.315508 5.5332
lowerneck -17.9779 0.434956 -9.55839
upperneck 25.4341 2.91237 1.67323
head 11.0792 0.532018 2.62639
rclavicle 1.89342e-014 4.77083e-015
rhumerus -34.8392 15.8824 -60.8207
rradius 51.4919
rwrist 20.0944
rhand -31.8913 17.7661
rfingers 7.12502
rthumb -5.14376 -12.1514
lclavicle 1.89342e-014 4.77083e-015
lhumerus -30.9502 -18.2234 91.5604
lradius 78.4434
lwrist -12.1626
lhand -37.092 14.1058
lfingers 7.12502
lthumb -10.1634 43.8403
rfemur -71.6601 -7.57341 20.1822
rtibia 127.368
rfoot 21.3583 -3.88741
rtoes 8.18517
lfemur -68.6378 53.9351 -21.0727
ltibia 142.32
lfoot -17.6937 0.615308
ltoes 2.57064
404
root 1.27796 15.875 -3.36249 -17.9924 -47.8808 -7.78351
lowerback 26.5415 0.669674 -1.58714
upperback 10.2964 0.206812 4.05796
thorax -3.26582 -0.246209 5.31205
lowerneck -18.0353 0.410263 -9.26522
upperneck 25.2245 2.80007 1.65369
head 11.021 0.517647 2.55176
rclavicle -4.42793e-014 7.71285e-014
rhumerus -34.1469 14.8856 -60.0982
rradius 52.2908
rwrist 19.2737
rhand -31.3877 17.1929
rfingers 7.12502
rthumb -4.65748 -12.7359
lclavicle -4.42793e-014 7.71285e-014
lhumerus -31.0657 -18.5652 91.3432
lradius 78.3818
lwrist -12.068
lhand -37.0328 14.0957
lfingers 7.12502
lthumb -10.1063 43.833
rfemur -72.1352 -7.83058 20.3962
rtibia 128.789
rfoot 21.1423 -4.48686
rtoes 9.83933
lfemur -68.8705 54.2229 -21.127
ltibia 142.359
lfoot -16.9502 0.432544
ltoes 1.63633
405
root 1.28088 15.8678 -3.36618 -17.966 -48.153 -7.75581
lowerback 26.525 0.648841 -1.5001
upperback 10.2661 0.201328 4.06641
thorax -3.29126 -0.246446 5.27239
lowerneck -18.0836 0.463978 -9.29903
upperneck 24.9794 2.87991 1.68962
head 10.932 0.566701 2.5773
rclavicle -1.635e-014 -4.01545e-014
rhumerus -33.2203 14.2906 -59.3462
rradius 53.1525
rwrist 18.6394
rhand -31.1011 16.4103
rfingers 7.12502
rthumb -4.38072 -13.5244
lclavicle -1.635e-014 -4.01545e-014
lhumerus -31.1992 -18.3449 91.2211
lradius 78.3579
lwrist -12.2812
lhand -36.936 13.8772
lfingers 7.12502
lthumb -10.0129 43.6191
rfemur -72.6302 -8.03528 20.7584
rtibia 130.139
rfoot 20.7584 -5.41836
rtoes 12.5038
lfemur -69.2044 54.5943 -21.1257
ltibia 142.426
lfoot -16.6653 0.26725
ltoes -0.189442
406
root 1.28337 15.86 -3.37121 -18.0022 -48.4141 -7.64428
lowerback 26.4575 0.578221 -1.52797
upperback 10.2779 0.101684 4.12607
thorax -3.23508 -0.300993 5.38188
lowerneck -18.3421 0.583293 -9.60974
upperneck 24.902 3.14125 1.81194
head 10.9299 0.674674 2.71176
rclavicle -7.35503e-015 -2.42517e-014
rhumerus -32.1028 14.0586 -58.5128
rradius 54.1664
rwrist 17.833
rhand -31.0632 16.15
rfingers 7.12502
rthumb -4.34416 -13.7854
lclavicle -7.35503e-015 -2.42517e-014
lhumerus -31.322 -17.924 91.1606
lradius 78.4153
lwrist -12.3163
lhand -36.8846 13.6005
lfingers 7.12502
lthumb -9.96331 43.3447
rfemur -73.1164 -8.26264 21.0799
rtibia 131.457
rfoot 20.509 -5.83004
rtoes 13.5566
lfemur -69.3762 55.0175 -21.1457
ltibia 142.487
lfoot -17.0187 0.248731
ltoes -3.18596
407
root 1.2887 15.8557 -3.37729 -18.1909 -48.6491 -7.43775
lowerback 26.526 0.547216 -1.5516
upperback 10.2734 0.0513046 4.10379
thorax -3.26741 -0.326919 5.3871
lowerneck -18.5425 0.708852 -9.5891
upperneck 24.8261 3.33731 1.8109
head 10.9274 0.769122 2.73684
rclavicle 6.05299e-014 0
rhumerus -31.1508 13.5775 -57.8285
rradius 55.2758
rwrist 17.2168
rhand -31.0104 16.5675
rfingers 7.12502
rthumb -4.29321 -13.369
lclavicle 6.05299e-014 0
lhumerus -31.4573 -17.7945 90.9789
lradius 78.4492
lwrist -12.3029
lhand -36.9806 13.4384
lfingers 7.12502
lthumb -10.056 43.1781
rfemur -73.3923 -8.58202 21.3745
rtibia 132.644
rfoot 20.3424 -5.8009
rtoes 13.063
lfemur -69.2843 55.3675 -21.1127
ltibia 142.496
lfoot -17.0661 0.2734
ltoes -5.3995
